<?xml version="1.0" encoding="utf-8"?>
<!-- Generator: Adobe Illustrator 24.2.1, SVG Export Plug-In . SVG Version: 6.00 Build 0)  -->
<svg version="1.1" id="Capa_1" xmlns="http://www.w3.org/2000/svg" xmlns:xlink="http://www.w3.org/1999/xlink" x="0px" y="0px"
	 viewBox="0 0 449.2 444" style="enable-background:new 0 0 449.2 444;" xml:space="preserve">
<style type="text/css">
	.st0{fill:#D4E1F4;}
	.st1{fill:#00CEB4;}
	.st2{fill:#083863;}
</style>
<g>
	<path class="st0" d="M384.4,102.4v299.4c0,17.3-14,31.3-31.3,31.3h-257c-17.3,0-31.3-14-31.3-31.3V102.4c0-17.3,14-31.3,31.3-31.3
		h51.2v36.6h154.1V71h51.7C370.4,71,384.4,85.1,384.4,102.4z"/>
	<path class="st1" d="M301.4,71v36.6H147.3V42.3h38.1c3.9-18.2,20-31.3,38.7-31.3c18.7-0.1,34.9,13,38.7,31.3h38.7V71z"/>
</g>
<g>
	<path class="st2" d="M353.1,60.1h-39.7V42.3c0-5.7-6.3-8.4-12-8.4h-30.8c-6.9-19.6-25.8-32.3-46.5-31.3
		c-20.7-0.8-39.5,11.9-46.5,31.3h-30.3c-5.7,0-11.5,2.6-11.5,8.4v17.8H96.1c-23.5,0.3-42.8,18.8-43.9,42.3v299.4
		c0,23,20.9,39.7,43.9,39.7h257c23,0,43.9-16.7,43.9-39.7V102.4C395.9,78.9,376.6,60.3,353.1,60.1z M156.7,54.8h28.7
		c5.1-0.4,9.2-4.3,9.9-9.4c3.1-13.5,14.9-23.1,28.7-23.5c13.7,0.4,25.3,10.1,28.2,23.5c0.9,5.1,5.2,9,10.4,9.4h29.8v41.8H156.7V54.8
		z M353.1,420.6h-257c-11.5,0-23-7.3-23-18.8V102.4c1.1-12,11-21.2,23-21.4h39.7v26.6c0.6,5.9,5.6,10.2,11.5,9.9h154.1
		c6,0.3,11.2-4,12-9.9V81h39.7c12,0.2,21.9,9.5,23,21.4v299.4h0C376.1,413.2,364.6,420.6,353.1,420.6z"/>
	<path class="st2" d="M169.7,235.6l-33.4,31.9l-14.1-14.6c-3.9-4.1-10.4-4.4-14.6-0.5c-4,4.2-4,10.9,0,15.2l21.4,21.9
		c1.9,2.1,4.5,3.2,7.3,3.1c2.8,0,5.4-1.2,7.3-3.1l40.8-38.7c0.2-0.2,0.4-0.4,0.6-0.6c3.7-4,3.4-10.3-0.6-14
		C180.4,232,173.9,231.8,169.7,235.6z"/>
	<path class="st2" d="M334.3,258.6H214.1c-5.8,0-10.4,4.7-10.4,10.4s4.7,10.4,10.4,10.4h120.2c5.8,0,10.4-4.7,10.4-10.4
		C344.7,263.3,340.1,258.6,334.3,258.6z"/>
	<path class="st2" d="M169.7,152l-33.4,31.9l-14.1-14.6c-3.9-4.1-10.4-4.4-14.6-0.5c-4,4.2-4,10.9,0,15.2l21.4,21.9
		c1.9,2.1,4.5,3.2,7.3,3.1c2.8,0,5.4-1.2,7.3-3.1l40.8-38.7c0.2-0.2,0.4-0.4,0.6-0.6c3.7-4,3.4-10.3-0.6-14
		C180.4,148.4,173.9,148.2,169.7,152z"/>
	<path class="st2" d="M334.3,175H214.1c-5.8,0-10.4,4.7-10.4,10.4s4.7,10.4,10.4,10.4h120.2c5.8,0,10.4-4.7,10.4-10.4
		C344.7,179.7,340.1,175,334.3,175z"/>
	<path class="st2" d="M169.7,319.2l-33.4,31.9l-14.1-14.6c-3.9-4.1-10.4-4.4-14.6-0.5c-4,4.2-4,10.9,0,15.2L129,373
		c1.9,2.1,4.5,3.2,7.3,3.1c2.8,0,5.4-1.2,7.3-3.1l40.8-38.7c0.2-0.2,0.4-0.4,0.6-0.6c3.7-4,3.4-10.3-0.6-14
		C180.4,315.6,173.9,315.4,169.7,319.2z"/>
	<path class="st2" d="M334.3,342.2H214.1c-5.8,0-10.4,4.7-10.4,10.4s4.7,10.4,10.4,10.4h120.2c5.8,0,10.4-4.7,10.4-10.4
		C344.7,346.9,340.1,342.2,334.3,342.2z"/>
</g>
</svg>
